M48
; DRILL file {KiCad 9.0.2} date 2025-07-06T23:48:35-0400
; FORMAT={-:-/ absolute / metric / decimal}
; #@! TF.CreationDate,2025-07-06T23:48:35-04:00
; #@! TF.GenerationSoftware,Kicad,Pcbnew,9.0.2
; #@! TF.FileFunction,NonPlated,1,2,NPTH
FMAT,2
METRIC
; #@! TA.AperFunction,NonPlated,NPTH,ComponentDrill
T1C1.700
; #@! TA.AperFunction,NonPlated,NPTH,ComponentDrill
T2C4.000
%
G90
G05
T1
X95.23Y-73.5
X95.42Y-92.567
X95.42Y-111.5
X105.39Y-73.5
X105.58Y-92.567
X105.58Y-111.5
X114.359Y-73.5
X114.359Y-92.567
X114.42Y-111.5
X124.519Y-73.5
X124.519Y-92.567
X124.58Y-111.5
X133.42Y-73.5
X133.42Y-92.567
X133.42Y-111.5
X143.58Y-73.5
X143.58Y-92.567
X143.58Y-111.5
T2
X100.31Y-73.5
X100.5Y-92.567
X100.5Y-111.5
X119.439Y-73.5
X119.439Y-92.567
X119.5Y-111.5
X138.5Y-73.5
X138.5Y-92.567
X138.5Y-111.5
M30
