M48
; DRILL file {KiCad 9.0.2} date 2025-07-06T23:48:35-0400
; FORMAT={-:-/ absolute / metric / decimal}
; #@! TF.CreationDate,2025-07-06T23:48:35-04:00
; #@! TF.GenerationSoftware,Kicad,Pcbnew,9.0.2
; #@! TF.FileFunction,Plated,1,2,PTH
FMAT,2
METRIC
; #@! TA.AperFunction,Plated,PTH,ComponentDrill
T1C0.889
; #@! TA.AperFunction,Plated,PTH,ComponentDrill
T2C1.000
; #@! TA.AperFunction,Plated,PTH,ComponentDrill
T3C1.500
; #@! TA.AperFunction,Plated,PTH,ComponentDrill
T4C2.600
%
G90
G05
T1
X89.5Y-44.26
X89.5Y-59.5
X92.04Y-44.26
X92.04Y-59.5
X94.58Y-44.26
X94.58Y-59.5
X97.12Y-44.26
X97.12Y-59.5
X99.66Y-44.26
X99.66Y-59.5
X102.2Y-44.26
X102.2Y-59.5
X104.74Y-44.26
X104.74Y-59.5
T2
X110.0Y-71.0
X110.0Y-76.08
X110.0Y-89.5
X110.0Y-94.58
X110.0Y-108.5
X110.0Y-113.58
X129.0Y-48.6
X129.0Y-51.1
X129.0Y-53.6
X129.0Y-70.96
X129.0Y-76.04
X129.0Y-90.0
X129.0Y-95.08
X129.0Y-108.5
X129.0Y-113.58
X143.5Y-48.6
X143.5Y-53.6
X148.5Y-71.0
X148.5Y-76.08
X148.5Y-90.0
X148.5Y-95.08
X148.5Y-109.0
X148.5Y-114.08
T3
X96.5Y-70.96
X96.69Y-90.027
X96.69Y-108.96
X102.85Y-68.42
X103.04Y-87.487
X103.04Y-106.42
X115.629Y-70.96
X115.629Y-90.027
X115.69Y-108.96
X121.979Y-68.42
X121.979Y-87.487
X122.04Y-106.42
X134.69Y-70.96
X134.69Y-90.027
X134.69Y-108.96
X141.04Y-68.42
X141.04Y-87.487
X141.04Y-106.42
T4
X136.5Y-45.5
X136.5Y-56.7
M30
